<svg width="231" height="42" viewBox="0 0 231 42" fill="none" xmlns="http://www.w3.org/2000/svg">
<path d="M200.839 10.9002C202.992 13.2889 202.839 17.0109 200.409 19.2016C198.02 21.3553 194.298 21.2019 192.107 18.772C189.954 16.3833 190.107 12.6613 192.537 10.4706C194.963 8.35817 198.685 8.51153 200.839 10.9002Z" fill="#4D1D9C"/>
<path d="M213.572 7.63289C215.725 10.0216 215.572 13.7436 213.142 15.9344C210.753 18.088 207.031 17.9346 204.841 15.5048C202.687 13.1161 202.84 9.39403 205.27 7.20328C207.696 5.09084 211.418 5.2442 213.572 7.63289Z" fill="#AC8DDF"/>
<path d="M226.305 4.3655C228.458 6.75419 228.305 10.4762 225.875 12.667C223.487 14.8206 219.765 14.6672 217.574 12.2374C215.42 9.84865 215.574 6.12663 218.003 3.93588C220.429 1.82345 224.151 1.97681 226.305 4.3655Z" fill="#D7C0FC" fill-opacity="0.99"/>
<path d="M213.01 24.5653C215.163 26.9539 218.881 27.1856 221.311 24.9949C223.7 22.8413 223.931 19.1233 221.741 16.6934C219.587 14.3047 215.869 14.0731 213.439 16.2638C211.088 18.4586 210.856 22.1766 213.01 24.5653Z" fill="#F2EDFB"/>
<path d="M208.445 36.8932C210.599 39.2819 214.317 39.5136 216.747 37.3228C219.135 35.1692 219.367 31.4512 217.176 29.0214C215.023 26.6327 211.305 26.401 208.875 28.5917C206.523 30.7865 206.292 34.5045 208.445 36.8932Z" fill="#F9F8FD"/>
<mask id="mask0_58_97" style="mask-type:alpha" maskUnits="userSpaceOnUse" x="0" y="1" width="189" height="31">
<path d="M189 1.69415H0V31.6942H189V1.69415Z" fill="white"/>
<path d="M17.4703 23.6469L17.2321 7.37017L20.5529 7.60843L20.7316 28.0698L17.5299 28.3229L4.20174 12.4036L4.39533 28.4718L1.28294 28.591L1 7.29571L4.14217 7.14679L17.4703 23.6469Z" fill="black"/>
<path d="M29.622 8.74025C29.622 9.02816 29.5625 9.30117 29.4433 9.5593C29.3341 9.81742 29.1802 10.0408 28.9817 10.2294C28.793 10.418 28.5697 10.5669 28.3115 10.6762C28.0534 10.7854 27.7754 10.84 27.4776 10.84C27.1897 10.84 26.9167 10.7854 26.6586 10.6762C26.4104 10.5669 26.187 10.418 25.9884 10.2294C25.7998 10.0408 25.6509 9.81742 25.5417 9.5593C25.4325 9.30117 25.3779 9.02816 25.3779 8.74025C25.3779 8.44241 25.4325 8.16443 25.5417 7.90631C25.6509 7.64819 25.7998 7.42481 25.9884 7.23618C26.187 7.03762 26.4104 6.88374 26.6586 6.77453C26.9167 6.6554 27.1897 6.59583 27.4776 6.59583C27.7754 6.59583 28.0534 6.6554 28.3115 6.77453C28.5697 6.88374 28.793 7.03762 28.9817 7.23618C29.1802 7.42481 29.3341 7.64819 29.4433 7.90631C29.5625 8.16443 29.622 8.44241 29.622 8.74025ZM28.9221 13.9821C28.8923 15.4018 28.8625 16.7073 28.8328 17.8987C28.8129 19.0801 28.793 20.1573 28.7732 21.1302C28.7533 22.1031 28.7335 22.9768 28.7136 23.7511C28.7037 24.5156 28.6938 25.1857 28.6838 25.7615C28.6541 27.1316 28.6392 28.2088 28.6392 28.9931H25.5863C25.6062 27.9208 25.631 26.6451 25.6608 25.1659C25.6807 23.8951 25.7055 22.3414 25.7353 20.5047C25.775 18.6681 25.8097 16.5336 25.8395 14.1013L28.9221 13.9821Z" fill="black"/>
<path d="M48.6835 17.4221L46.2115 18.9262L46.1817 18.8369C45.9236 18.3305 45.6108 17.8788 45.2435 17.4817C44.8762 17.0747 44.4642 16.7321 44.0075 16.4542C43.5508 16.1663 43.0594 15.9478 42.5332 15.7989C42.017 15.65 41.4759 15.5756 40.91 15.5756C40.0959 15.5756 39.3315 15.7294 38.6167 16.0372C37.9118 16.345 37.2913 16.7669 36.7552 17.303C36.229 17.8391 35.812 18.4695 35.5043 19.1943C35.1965 19.9091 35.0426 20.6735 35.0426 21.4876C35.0426 22.2918 35.1965 23.0512 35.5043 23.766C35.812 24.4808 36.229 25.1063 36.7552 25.6424C37.2913 26.1785 37.9118 26.6004 38.6167 26.9082C39.3315 27.216 40.0959 27.3699 40.91 27.3699C41.4362 27.3699 41.9475 27.3004 42.4439 27.1614C42.9403 27.0224 43.4069 26.8288 43.8437 26.5806C44.2904 26.3225 44.6975 26.0147 45.0648 25.6573C45.4321 25.29 45.7449 24.8829 46.003 24.4362L46.0626 24.3468L48.6537 25.8211L48.624 25.9105C48.2368 26.5558 47.7652 27.1365 47.2092 27.6528C46.6533 28.169 46.0377 28.6108 45.3626 28.9782C44.6975 29.3554 43.9827 29.6433 43.2182 29.8419C42.4637 30.0404 41.6943 30.1397 40.91 30.1397C39.7882 30.1397 38.7011 29.9213 37.6487 29.4845C36.6063 29.0477 35.6731 28.4421 34.849 27.6677C34.035 26.8933 33.3797 25.98 32.8833 24.9276C32.3969 23.8752 32.1536 22.7286 32.1536 21.4876C32.1536 20.743 32.2529 20.0133 32.4515 19.2985C32.66 18.5738 32.9479 17.8887 33.3152 17.2434C33.6924 16.5981 34.1442 16.0025 34.6703 15.4564C35.2064 14.9104 35.7972 14.4438 36.4425 14.0566C37.0878 13.6595 37.7877 13.3517 38.5422 13.1333C39.2967 12.905 40.086 12.7908 40.91 12.7908C41.7737 12.7908 42.5928 12.895 43.3671 13.1035C44.1515 13.312 44.8762 13.6148 45.5414 14.0119C46.2065 14.3991 46.8022 14.8756 47.3284 15.4415C47.8545 16.0074 48.2963 16.6478 48.6537 17.3626L48.6835 17.4221Z" fill="black"/>
<path d="M58.795 27.2209C59.3212 27.2209 59.8424 27.1415 60.3587 26.9827C60.8749 26.8139 61.3515 26.5756 61.7883 26.2679C62.2251 25.9502 62.6024 25.558 62.9201 25.0914C63.2477 24.6248 63.486 24.0837 63.6349 23.4682L66.509 24.049C66.231 24.9524 65.8389 25.7715 65.3325 26.5061C64.8262 27.2408 64.2355 27.8712 63.5604 28.3974C62.8853 28.9236 62.1407 29.3306 61.3267 29.6185C60.5225 29.9064 59.6786 30.0504 58.795 30.0504C57.4846 30.0504 56.323 29.8518 55.3104 29.4547C54.2977 29.0576 53.4439 28.4967 52.749 27.7719C52.054 27.0472 51.5229 26.1735 51.1556 25.151C50.7982 24.1284 50.6195 22.9867 50.6195 21.7259C50.6195 20.4849 50.8279 19.3283 51.2449 18.2561C51.6718 17.1739 52.2526 16.2358 52.9872 15.4415C53.7219 14.6473 54.5856 14.0218 55.5784 13.5652C56.5712 13.1085 57.6434 12.8801 58.795 12.8801C59.8275 12.8801 60.8005 13.0837 61.7138 13.4907C62.6272 13.8878 63.4363 14.4438 64.1412 15.1586C64.8461 15.8635 65.4269 16.6974 65.8835 17.6604C66.3402 18.6234 66.6281 19.6658 66.7473 20.7877L53.851 22.7087C53.9205 23.4136 54.0942 24.049 54.3722 24.6149C54.6502 25.1708 55.0026 25.6424 55.4295 26.0296C55.8663 26.4168 56.3677 26.7146 56.9336 26.9231C57.5094 27.1217 58.1299 27.2209 58.795 27.2209ZM62.9052 18.8666L62.8158 18.5837C62.4386 17.6008 61.9174 16.8314 61.2522 16.2755C60.597 15.7195 59.7779 15.4415 58.795 15.4415C58.3781 15.4415 57.9214 15.516 57.425 15.6649C56.9286 15.8039 56.4471 16.0471 55.9805 16.3946C55.5139 16.7421 55.092 17.2087 54.7147 17.7944C54.3474 18.3702 54.0892 19.09 53.9403 19.9537L62.9052 18.8666Z" fill="black"/>
<path d="M89.3381 29.5292L89.5466 27.4294C88.3354 28.2038 87.1441 28.7647 85.9726 29.1122C84.811 29.4597 83.7239 29.6334 82.7113 29.6334C81.9965 29.6334 81.3015 29.5391 80.6264 29.3505C79.9612 29.1718 79.3705 28.8938 78.8543 28.5165C78.348 28.1293 77.936 27.6429 77.6183 27.0571C77.3105 26.4615 77.1566 25.7615 77.1566 24.9574C77.1566 24.1532 77.2758 23.4335 77.514 22.7981C77.7523 22.1627 78.0799 21.6018 78.4969 21.1153C78.9139 20.6288 79.4053 20.2119 79.9712 19.8644C80.5371 19.5169 81.1427 19.234 81.788 19.0156C82.4432 18.7971 83.1282 18.6383 83.843 18.539C84.5578 18.4298 85.2677 18.3752 85.9726 18.3752C86.6278 18.3752 87.2384 18.4 87.8043 18.4497C88.3701 18.4993 88.8715 18.5638 89.3083 18.6433C89.1793 18.1469 89.0204 17.6604 88.8318 17.1839C88.6432 16.6974 88.3999 16.2655 88.1021 15.8883C87.8142 15.5011 87.4568 15.1884 87.0299 14.9501C86.603 14.7118 86.0917 14.5927 85.496 14.5927C85.1088 14.5927 84.6671 14.6523 84.1707 14.7714C83.6743 14.8806 83.1282 15.0841 82.5326 15.382C81.9369 15.6798 81.2866 16.0918 80.5817 16.618C79.8769 17.1342 79.1223 17.7994 78.3182 18.6135L76.5163 16.4244C77.4694 15.5309 78.3827 14.8012 79.2564 14.2353C80.13 13.6694 80.9491 13.2276 81.7135 12.9099C82.4879 12.5823 83.2027 12.3589 83.8579 12.2398C84.5231 12.1207 85.1188 12.0611 85.6449 12.0611C86.5583 12.0611 87.3724 12.2199 88.0872 12.5376C88.802 12.8454 89.4275 13.2723 89.9636 13.8183C90.5096 14.3544 90.9663 14.9898 91.3336 15.7245C91.7109 16.4492 92.0186 17.2335 92.2569 18.0774C92.4952 18.9113 92.6639 19.78 92.7632 20.6834C92.8724 21.5869 92.927 22.4853 92.927 23.3789C92.927 24.3319 92.8724 25.3545 92.7632 26.4466C92.654 27.5386 92.4852 28.73 92.2569 30.0206L89.3381 29.5292ZM89.7551 24.1086C89.7749 23.6122 89.7898 23.1207 89.7998 22.6343C89.8097 22.1478 89.7849 21.6415 89.7253 21.1153C89.2388 20.9664 88.7275 20.8472 88.1914 20.7579C87.6553 20.6685 87.1192 20.6239 86.5831 20.6239C85.6896 20.6239 84.8209 20.7281 83.9771 20.9366C83.1431 21.1451 82.4234 21.4479 81.8178 21.845C81.2122 22.2421 80.7555 22.7286 80.4477 23.3044C80.1499 23.8802 80.0903 24.5354 80.269 25.2701C80.408 25.8658 80.6761 26.2828 81.0732 26.521C81.4802 26.7593 81.9667 26.8784 82.5326 26.8784C83.1084 26.8784 83.7289 26.7841 84.394 26.5955C85.0691 26.3969 85.7343 26.1587 86.3895 25.8807C87.0547 25.5928 87.6802 25.29 88.2659 24.9723C88.8516 24.6546 89.348 24.3667 89.7551 24.1086Z" fill="black"/>
<path d="M100.805 8.74025C100.805 9.02816 100.745 9.30117 100.626 9.5593C100.517 9.81742 100.363 10.0408 100.164 10.2294C99.9758 10.418 99.7524 10.5669 99.4943 10.6762C99.2362 10.7854 98.9582 10.84 98.6604 10.84C98.3725 10.84 98.0995 10.7854 97.8413 10.6762C97.5931 10.5669 97.3698 10.418 97.1712 10.2294C96.9826 10.0408 96.8336 9.81742 96.7244 9.5593C96.6152 9.30117 96.5606 9.02816 96.5606 8.74025C96.5606 8.44241 96.6152 8.16443 96.7244 7.90631C96.8336 7.64819 96.9826 7.42481 97.1712 7.23618C97.3698 7.03762 97.5931 6.88374 97.8413 6.77453C98.0995 6.6554 98.3725 6.59583 98.6604 6.59583C98.9582 6.59583 99.2362 6.6554 99.4943 6.77453C99.7524 6.88374 99.9758 7.03762 100.164 7.23618C100.363 7.42481 100.517 7.64819 100.626 7.90631C100.745 8.16443 100.805 8.44241 100.805 8.74025ZM100.105 13.9821C100.075 15.4018 100.045 16.7073 100.016 17.8987C99.9957 19.0801 99.9758 20.1573 99.956 21.1302C99.9361 22.1031 99.9162 22.9768 99.8964 23.7511C99.8865 24.5156 99.8765 25.1857 99.8666 25.7615C99.8368 27.1316 99.8219 28.2088 99.8219 28.9931H96.7691C96.789 27.9208 96.8138 26.6451 96.8436 25.1659C96.8634 23.8951 96.8883 22.3414 96.918 20.5047C96.9577 18.6681 96.9925 16.5336 97.0223 14.1013L100.105 13.9821Z" fill="black"/>
<path d="M115.622 20.2069C115.612 19.7204 115.568 19.2985 115.488 18.9411C115.419 18.5837 115.324 18.2759 115.205 18.0178C115.096 17.7597 114.967 17.5462 114.818 17.3775C114.679 17.2087 114.535 17.0697 114.386 16.9605C114.039 16.7123 113.646 16.5932 113.21 16.6031C112.932 16.6428 112.634 16.7619 112.316 16.9605C112.008 17.1491 111.691 17.3973 111.363 17.7051C111.035 18.0029 110.703 18.3454 110.365 18.7326C110.038 19.1099 109.72 19.502 109.412 19.9091C109.104 20.3062 108.812 20.7033 108.534 21.1004C108.256 21.4975 108.007 21.8599 107.789 22.1875C107.799 22.9321 107.814 23.6668 107.834 24.3915C107.854 25.1063 107.868 25.7764 107.878 26.4019C107.898 27.0174 107.918 27.5783 107.938 28.0847C107.968 28.5811 107.998 28.9831 108.027 29.2909L104.826 29.693C104.766 27.9854 104.711 26.4416 104.662 25.0616C104.612 23.6717 104.567 22.4307 104.528 21.3387C104.488 20.2466 104.453 19.2836 104.423 18.4497C104.404 17.6157 104.384 16.896 104.364 16.2904C104.324 14.8707 104.294 13.8183 104.275 13.1333L107.67 13.0737C107.68 13.6793 107.685 14.2998 107.685 14.9352C107.695 15.5607 107.705 16.1365 107.715 16.6627C107.725 17.2782 107.729 17.8788 107.729 18.4646C108.017 18.0079 108.365 17.5065 108.772 16.9605C109.189 16.4145 109.655 15.8982 110.172 15.4117C110.698 14.9253 111.269 14.5033 111.884 14.1459C112.51 13.7786 113.175 13.5503 113.88 13.4609C114.674 13.4212 115.399 13.59 116.054 13.9672C116.332 14.1261 116.605 14.3395 116.873 14.6076C117.151 14.8657 117.404 15.2033 117.633 15.6202C117.871 16.0273 118.069 16.5187 118.228 17.0945C118.387 17.6604 118.496 18.3305 118.556 19.1049L115.622 20.2069Z" fill="black"/>
<path d="M126.91 29.3207C126.205 29.3107 125.58 29.1916 125.034 28.9633C124.498 28.7349 124.021 28.4421 123.604 28.0847C123.197 27.7173 122.845 27.3004 122.547 26.8337C122.259 26.3671 122.016 25.8956 121.817 25.419C121.341 24.2873 121.043 23.0066 120.924 21.5769L121.326 2.69415H124.438C124.388 4.46131 124.339 6.08452 124.289 7.56377C124.249 9.03309 124.215 10.3734 124.185 11.5846C124.155 12.7858 124.125 13.863 124.096 14.8161C124.076 15.7691 124.056 16.6081 124.036 17.3328C123.996 19.0404 123.966 20.3856 123.947 21.3685C123.966 22.2918 124.101 23.1158 124.349 23.8405C124.448 24.1483 124.577 24.4511 124.736 24.7489C124.905 25.0467 125.103 25.3148 125.332 25.5531C125.57 25.7913 125.848 25.9849 126.166 26.1338C126.493 26.2728 126.87 26.3473 127.297 26.3572L126.91 29.3207Z" fill="black"/>
<path d="M133.626 8.74025C133.626 9.02816 133.567 9.30117 133.448 9.5593C133.338 9.81742 133.185 10.0408 132.986 10.2294C132.797 10.418 132.574 10.5669 132.316 10.6762C132.058 10.7854 131.78 10.84 131.482 10.84C131.194 10.84 130.921 10.7854 130.663 10.6762C130.415 10.5669 130.191 10.418 129.993 10.2294C129.804 10.0408 129.655 9.81742 129.546 9.5593C129.437 9.30117 129.382 9.02816 129.382 8.74025C129.382 8.44241 129.437 8.16443 129.546 7.90631C129.655 7.64819 129.804 7.42481 129.993 7.23618C130.191 7.03762 130.415 6.88374 130.663 6.77453C130.921 6.6554 131.194 6.59583 131.482 6.59583C131.78 6.59583 132.058 6.6554 132.316 6.77453C132.574 6.88374 132.797 7.03762 132.986 7.23618C133.185 7.42481 133.338 7.64819 133.448 7.90631C133.567 8.16443 133.626 8.44241 133.626 8.74025ZM132.926 13.9821C132.897 15.4018 132.867 16.7073 132.837 17.8987C132.817 19.0801 132.797 20.1573 132.777 21.1302C132.758 22.1031 132.738 22.9768 132.718 23.7511C132.708 24.5156 132.698 25.1857 132.688 25.7615C132.658 27.1316 132.643 28.2088 132.643 28.9931H129.591C129.61 27.9208 129.635 26.6451 129.665 25.1659C129.685 23.8951 129.71 22.3414 129.74 20.5047C129.779 18.6681 129.814 16.5336 129.844 14.1013L132.926 13.9821Z" fill="black"/>
<path d="M137.647 29.693C137.588 27.9854 137.533 26.4416 137.483 25.0616C137.434 23.6717 137.389 22.4307 137.349 21.3387C137.31 20.2466 137.275 19.2836 137.245 18.4497C137.225 17.6157 137.205 16.896 137.185 16.2904C137.146 14.8707 137.116 13.8183 137.096 13.1333L140.491 13.0737L140.551 17.3626C140.879 16.7967 141.251 16.2655 141.668 15.7691C142.085 15.2628 142.537 14.8161 143.023 14.4289C143.509 14.0417 144.026 13.729 144.572 13.4907C145.128 13.2524 145.709 13.1134 146.314 13.0737C147.069 13.0241 147.724 13.0886 148.28 13.2673C148.846 13.446 149.327 13.6942 149.724 14.0119C150.121 14.3296 150.449 14.7069 150.707 15.1437C150.965 15.5706 151.169 16.0173 151.318 16.484C151.467 16.9406 151.571 17.3973 151.63 17.854C151.7 18.3107 151.745 18.7276 151.765 19.1049C151.824 20.8125 151.839 22.53 151.809 24.2575C151.779 25.9849 151.745 27.7769 151.705 29.6334L148.652 29.5292C148.732 27.9308 148.801 26.3324 148.861 24.734C148.93 23.1356 148.925 21.5223 148.846 19.8942C148.846 19.7155 148.831 19.4871 148.801 19.2092C148.781 18.9212 148.727 18.6184 148.637 18.3008C148.558 17.9831 148.444 17.6703 148.295 17.3626C148.146 17.0449 147.952 16.7719 147.714 16.5435C147.476 16.3053 147.183 16.1265 146.835 16.0074C146.498 15.8883 146.101 15.8635 145.644 15.933C144.86 16.0521 144.06 16.6279 143.246 17.6604C142.442 18.683 141.574 20.1821 140.64 22.1577C140.68 23.7561 140.71 25.0318 140.73 25.9849C140.759 26.9281 140.784 27.6429 140.804 28.1293C140.824 28.7052 140.839 29.0923 140.849 29.2909L137.647 29.693Z" fill="black"/>
<path d="M163.216 27.2209C163.742 27.2209 164.264 27.1415 164.78 26.9827C165.296 26.8139 165.773 26.5756 166.21 26.2679C166.646 25.9502 167.024 25.558 167.341 25.0914C167.669 24.6248 167.907 24.0837 168.056 23.4682L170.93 24.049C170.652 24.9524 170.26 25.7715 169.754 26.5061C169.247 27.2408 168.657 27.8712 167.982 28.3974C167.307 28.9236 166.562 29.3306 165.748 29.6185C164.944 29.9064 164.1 30.0504 163.216 30.0504C161.906 30.0504 160.744 29.8518 159.732 29.4547C158.719 29.0576 157.865 28.4967 157.17 27.7719C156.475 27.0472 155.944 26.1735 155.577 25.151C155.219 24.1284 155.041 22.9867 155.041 21.7259C155.041 20.4849 155.249 19.3283 155.666 18.2561C156.093 17.1739 156.674 16.2358 157.408 15.4415C158.143 14.6473 159.007 14.0218 160 13.5652C160.992 13.1085 162.065 12.8801 163.216 12.8801C164.249 12.8801 165.222 13.0837 166.135 13.4907C167.048 13.8878 167.858 14.4438 168.562 15.1586C169.267 15.8635 169.848 16.6974 170.305 17.6604C170.761 18.6234 171.049 19.6658 171.169 20.7877L158.272 22.7087C158.342 23.4136 158.515 24.049 158.793 24.6149C159.071 25.1708 159.424 25.6424 159.851 26.0296C160.288 26.4168 160.789 26.7146 161.355 26.9231C161.931 27.1217 162.551 27.2209 163.216 27.2209ZM167.326 18.8666L167.237 18.5837C166.86 17.6008 166.339 16.8314 165.673 16.2755C165.018 15.7195 164.199 15.4415 163.216 15.4415C162.799 15.4415 162.343 15.516 161.846 15.6649C161.35 15.8039 160.868 16.0471 160.402 16.3946C159.935 16.7421 159.513 17.2087 159.136 17.7944C158.769 18.3702 158.51 19.09 158.362 19.9537L167.326 18.8666Z" fill="black"/>
<path d="M187.847 25.3297C187.847 26.2728 187.654 27.0671 187.267 27.7124C186.889 28.3477 186.378 28.864 185.733 29.2611C185.097 29.6682 184.363 29.966 183.529 30.1546C182.705 30.3532 181.846 30.4723 180.952 30.512C180.039 30.5021 179.116 30.4078 178.183 30.2291C177.785 30.1596 177.363 30.0603 176.917 29.9312C176.48 29.8121 176.033 29.6632 175.576 29.4845C175.12 29.3058 174.663 29.0923 174.206 28.8441C173.75 28.5959 173.313 28.308 172.896 27.9804L174.34 25.7169C174.886 26.0048 175.442 26.2828 176.008 26.5508C176.584 26.8189 177.17 27.0571 177.766 27.2656C178.361 27.4642 178.972 27.623 179.597 27.7421C180.223 27.8613 180.868 27.9208 181.533 27.9208C182.079 27.9208 182.541 27.8712 182.918 27.7719C183.295 27.6627 183.603 27.5337 183.841 27.3847C184.09 27.2259 184.278 27.0522 184.407 26.8635C184.546 26.665 184.646 26.4763 184.705 26.2976C184.755 26.1388 184.775 25.9651 184.765 25.7764C184.755 25.5779 184.7 25.3793 184.601 25.1808C184.512 24.9822 184.368 24.7886 184.169 24.6C183.98 24.4014 183.727 24.2277 183.41 24.0788C183.092 23.9199 182.705 23.7909 182.248 23.6916C181.791 23.5923 181.25 23.5278 180.625 23.498C179.731 23.4583 178.868 23.3689 178.034 23.2299C177.21 23.081 176.47 22.8527 175.815 22.5449C175.169 22.2371 174.633 21.8351 174.206 21.3387C173.789 20.8324 173.536 20.2019 173.447 19.4474C173.377 18.7326 173.422 18.0823 173.581 17.4966C173.75 16.9009 173.998 16.3698 174.326 15.9032C174.663 15.4366 175.075 15.0295 175.562 14.682C176.048 14.3246 176.579 14.0318 177.155 13.8034C177.731 13.5652 178.336 13.3914 178.972 13.2822C179.617 13.1631 180.267 13.1035 180.923 13.1035C181.31 13.1035 181.767 13.1234 182.293 13.1631C182.819 13.2028 183.37 13.2822 183.946 13.4014C184.521 13.5205 185.102 13.6942 185.688 13.9226C186.274 14.141 186.82 14.4338 187.326 14.8012L186.299 17.5264C185.643 17.1789 185.018 16.9109 184.422 16.7222C183.836 16.5237 183.315 16.3698 182.859 16.2606C182.322 16.1414 181.821 16.062 181.354 16.0223C179.796 15.933 178.58 16.0968 177.706 16.5137C176.842 16.9307 176.41 17.5611 176.41 18.405C176.41 19.0007 176.574 19.4375 176.902 19.7155C177.229 19.9835 177.676 20.1771 178.242 20.2963C178.808 20.4154 179.468 20.4948 180.223 20.5345C180.977 20.5742 181.781 20.6586 182.635 20.7877C183.608 20.9366 184.427 21.16 185.092 21.4578C185.758 21.7556 186.294 22.1031 186.701 22.5002C187.108 22.8974 187.401 23.3391 187.579 23.8256C187.758 24.3021 187.847 24.8035 187.847 25.3297Z" fill="black"/>
</mask>
<g mask="url(#mask0_58_97)">
<path d="M17.4703 23.6469L17.2321 7.37017L20.5529 7.60843L20.7316 28.0698L17.5299 28.3229L4.20174 12.4036L4.39533 28.4718L1.28294 28.591L1 7.29571L4.14217 7.14679L17.4703 23.6469Z" fill="#4D1D9C"/>
<path d="M29.622 8.74025C29.622 9.02816 29.5625 9.30117 29.4433 9.5593C29.3341 9.81742 29.1802 10.0408 28.9817 10.2294C28.793 10.418 28.5697 10.5669 28.3115 10.6762C28.0534 10.7854 27.7754 10.84 27.4776 10.84C27.1897 10.84 26.9167 10.7854 26.6586 10.6762C26.4104 10.5669 26.187 10.418 25.9884 10.2294C25.7998 10.0408 25.6509 9.81742 25.5417 9.5593C25.4325 9.30117 25.3779 9.02816 25.3779 8.74025C25.3779 8.44241 25.4325 8.16443 25.5417 7.90631C25.6509 7.64819 25.7998 7.42481 25.9884 7.23618C26.187 7.03762 26.4104 6.88374 26.6586 6.77453C26.9167 6.6554 27.1897 6.59583 27.4776 6.59583C27.7754 6.59583 28.0534 6.6554 28.3115 6.77453C28.5697 6.88374 28.793 7.03762 28.9817 7.23618C29.1802 7.42481 29.3341 7.64819 29.4433 7.90631C29.5625 8.16443 29.622 8.44241 29.622 8.74025ZM28.9221 13.9821C28.8923 15.4018 28.8625 16.7073 28.8328 17.8987C28.8129 19.0801 28.793 20.1573 28.7732 21.1302C28.7533 22.1031 28.7335 22.9768 28.7136 23.7511C28.7037 24.5156 28.6938 25.1857 28.6838 25.7615C28.6541 27.1316 28.6392 28.2088 28.6392 28.9931H25.5863C25.6062 27.9208 25.631 26.6451 25.6608 25.1659C25.6807 23.8951 25.7055 22.3414 25.7353 20.5047C25.775 18.6681 25.8097 16.5336 25.8395 14.1013L28.9221 13.9821Z" fill="#4D1D9C"/>
<path d="M48.6835 17.4221L46.2115 18.9262L46.1817 18.8369C45.9236 18.3305 45.6108 17.8788 45.2435 17.4817C44.8762 17.0747 44.4642 16.7321 44.0075 16.4542C43.5508 16.1663 43.0594 15.9478 42.5332 15.7989C42.017 15.65 41.4759 15.5756 40.91 15.5756C40.0959 15.5756 39.3315 15.7294 38.6167 16.0372C37.9118 16.345 37.2913 16.7669 36.7552 17.303C36.229 17.8391 35.812 18.4695 35.5043 19.1943C35.1965 19.9091 35.0426 20.6735 35.0426 21.4876C35.0426 22.2918 35.1965 23.0512 35.5043 23.766C35.812 24.4808 36.229 25.1063 36.7552 25.6424C37.2913 26.1785 37.9118 26.6004 38.6167 26.9082C39.3315 27.216 40.0959 27.3699 40.91 27.3699C41.4362 27.3699 41.9475 27.3004 42.4439 27.1614C42.9403 27.0224 43.4069 26.8288 43.8437 26.5806C44.2904 26.3225 44.6975 26.0147 45.0648 25.6573C45.4321 25.29 45.7449 24.8829 46.003 24.4362L46.0626 24.3468L48.6537 25.8211L48.624 25.9105C48.2368 26.5558 47.7652 27.1365 47.2092 27.6528C46.6533 28.169 46.0377 28.6108 45.3626 28.9782C44.6975 29.3554 43.9827 29.6433 43.2182 29.8419C42.4637 30.0404 41.6943 30.1397 40.91 30.1397C39.7882 30.1397 38.7011 29.9213 37.6487 29.4845C36.6063 29.0477 35.6731 28.4421 34.849 27.6677C34.035 26.8933 33.3797 25.98 32.8833 24.9276C32.3969 23.8752 32.1536 22.7286 32.1536 21.4876C32.1536 20.743 32.2529 20.0133 32.4515 19.2985C32.66 18.5738 32.9479 17.8887 33.3152 17.2434C33.6924 16.5981 34.1442 16.0025 34.6703 15.4564C35.2064 14.9104 35.7972 14.4438 36.4425 14.0566C37.0878 13.6595 37.7877 13.3517 38.5422 13.1333C39.2967 12.905 40.086 12.7908 40.91 12.7908C41.7737 12.7908 42.5928 12.895 43.3671 13.1035C44.1515 13.312 44.8762 13.6148 45.5414 14.0119C46.2065 14.3991 46.8022 14.8756 47.3284 15.4415C47.8545 16.0074 48.2963 16.6478 48.6537 17.3626L48.6835 17.4221Z" fill="#4D1D9C"/>
<path d="M58.795 27.2209C59.3212 27.2209 59.8424 27.1415 60.3587 26.9827C60.8749 26.8139 61.3515 26.5756 61.7883 26.2679C62.2251 25.9502 62.6024 25.558 62.9201 25.0914C63.2477 24.6248 63.486 24.0837 63.6349 23.4682L66.509 24.049C66.231 24.9524 65.8389 25.7715 65.3325 26.5061C64.8262 27.2408 64.2355 27.8712 63.5604 28.3974C62.8853 28.9236 62.1407 29.3306 61.3267 29.6185C60.5225 29.9064 59.6786 30.0504 58.795 30.0504C57.4846 30.0504 56.323 29.8518 55.3104 29.4547C54.2977 29.0576 53.4439 28.4967 52.749 27.7719C52.054 27.0472 51.5229 26.1735 51.1556 25.151C50.7982 24.1284 50.6195 22.9867 50.6195 21.7259C50.6195 20.4849 50.8279 19.3283 51.2449 18.2561C51.6718 17.1739 52.2526 16.2358 52.9872 15.4415C53.7219 14.6473 54.5856 14.0218 55.5784 13.5652C56.5712 13.1085 57.6434 12.8801 58.795 12.8801C59.8275 12.8801 60.8005 13.0837 61.7138 13.4907C62.6272 13.8878 63.4363 14.4438 64.1412 15.1586C64.8461 15.8635 65.4269 16.6974 65.8835 17.6604C66.3402 18.6234 66.6281 19.6658 66.7473 20.7877L53.851 22.7087C53.9205 23.4136 54.0942 24.049 54.3722 24.6149C54.6502 25.1708 55.0026 25.6424 55.4295 26.0296C55.8663 26.4168 56.3677 26.7146 56.9336 26.9231C57.5094 27.1217 58.1299 27.2209 58.795 27.2209ZM62.9052 18.8666L62.8158 18.5837C62.4386 17.6008 61.9174 16.8314 61.2522 16.2755C60.597 15.7195 59.7779 15.4415 58.795 15.4415C58.3781 15.4415 57.9214 15.516 57.425 15.6649C56.9286 15.8039 56.4471 16.0471 55.9805 16.3946C55.5139 16.7421 55.092 17.2087 54.7147 17.7944C54.3474 18.3702 54.0892 19.09 53.9403 19.9537L62.9052 18.8666Z" fill="#4D1D9C"/>
<path d="M89.3381 29.5292L89.5466 27.4294C88.3354 28.2038 87.1441 28.7647 85.9726 29.1122C84.811 29.4597 83.7239 29.6334 82.7113 29.6334C81.9965 29.6334 81.3015 29.5391 80.6264 29.3505C79.9612 29.1718 79.3705 28.8938 78.8543 28.5165C78.348 28.1293 77.936 27.6429 77.6183 27.0571C77.3105 26.4615 77.1566 25.7615 77.1566 24.9574C77.1566 24.1532 77.2758 23.4335 77.514 22.7981C77.7523 22.1627 78.0799 21.6018 78.4969 21.1153C78.9139 20.6288 79.4053 20.2119 79.9712 19.8644C80.5371 19.5169 81.1427 19.234 81.788 19.0156C82.4432 18.7971 83.1282 18.6383 83.843 18.539C84.5578 18.4298 85.2677 18.3752 85.9726 18.3752C86.6278 18.3752 87.2384 18.4 87.8043 18.4497C88.3701 18.4993 88.8715 18.5638 89.3083 18.6433C89.1793 18.1469 89.0204 17.6604 88.8318 17.1839C88.6432 16.6974 88.3999 16.2655 88.1021 15.8883C87.8142 15.5011 87.4568 15.1884 87.0299 14.9501C86.603 14.7118 86.0917 14.5927 85.496 14.5927C85.1088 14.5927 84.6671 14.6523 84.1707 14.7714C83.6743 14.8806 83.1282 15.0841 82.5326 15.382C81.9369 15.6798 81.2866 16.0918 80.5817 16.618C79.8769 17.1342 79.1223 17.7994 78.3182 18.6135L76.5163 16.4244C77.4694 15.5309 78.3827 14.8012 79.2564 14.2353C80.13 13.6694 80.9491 13.2276 81.7135 12.9099C82.4879 12.5823 83.2027 12.3589 83.8579 12.2398C84.5231 12.1207 85.1188 12.0611 85.6449 12.0611C86.5583 12.0611 87.3724 12.2199 88.0872 12.5376C88.802 12.8454 89.4275 13.2723 89.9636 13.8183C90.5096 14.3544 90.9663 14.9898 91.3336 15.7245C91.7109 16.4492 92.0186 17.2335 92.2569 18.0774C92.4952 18.9113 92.6639 19.78 92.7632 20.6834C92.8724 21.5869 92.927 22.4853 92.927 23.3789C92.927 24.3319 92.8724 25.3545 92.7632 26.4466C92.654 27.5386 92.4852 28.73 92.2569 30.0206L89.3381 29.5292ZM89.7551 24.1086C89.7749 23.6122 89.7898 23.1207 89.7998 22.6343C89.8097 22.1478 89.7849 21.6415 89.7253 21.1153C89.2388 20.9664 88.7275 20.8472 88.1914 20.7579C87.6553 20.6685 87.1192 20.6239 86.5831 20.6239C85.6896 20.6239 84.8209 20.7281 83.9771 20.9366C83.1431 21.1451 82.4234 21.4479 81.8178 21.845C81.2122 22.2421 80.7555 22.7286 80.4477 23.3044C80.1499 23.8802 80.0903 24.5354 80.269 25.2701C80.408 25.8658 80.6761 26.2828 81.0732 26.521C81.4802 26.7593 81.9667 26.8784 82.5326 26.8784C83.1084 26.8784 83.7289 26.7841 84.394 26.5955C85.0691 26.3969 85.7343 26.1587 86.3895 25.8807C87.0547 25.5928 87.6802 25.29 88.2659 24.9723C88.8516 24.6546 89.348 24.3667 89.7551 24.1086Z" fill="#4D1D9C"/>
<path d="M100.805 8.74025C100.805 9.02816 100.745 9.30117 100.626 9.5593C100.517 9.81742 100.363 10.0408 100.164 10.2294C99.9758 10.418 99.7524 10.5669 99.4943 10.6762C99.2362 10.7854 98.9582 10.84 98.6604 10.84C98.3725 10.84 98.0995 10.7854 97.8413 10.6762C97.5931 10.5669 97.3698 10.418 97.1712 10.2294C96.9826 10.0408 96.8336 9.81742 96.7244 9.5593C96.6152 9.30117 96.5606 9.02816 96.5606 8.74025C96.5606 8.44241 96.6152 8.16443 96.7244 7.90631C96.8336 7.64819 96.9826 7.42481 97.1712 7.23618C97.3698 7.03762 97.5931 6.88374 97.8413 6.77453C98.0995 6.6554 98.3725 6.59583 98.6604 6.59583C98.9582 6.59583 99.2362 6.6554 99.4943 6.77453C99.7524 6.88374 99.9758 7.03762 100.164 7.23618C100.363 7.42481 100.517 7.64819 100.626 7.90631C100.745 8.16443 100.805 8.44241 100.805 8.74025ZM100.105 13.9821C100.075 15.4018 100.045 16.7073 100.016 17.8987C99.9957 19.0801 99.9758 20.1573 99.956 21.1302C99.9361 22.1031 99.9162 22.9768 99.8964 23.7511C99.8865 24.5156 99.8765 25.1857 99.8666 25.7615C99.8368 27.1316 99.8219 28.2088 99.8219 28.9931H96.7691C96.789 27.9208 96.8138 26.6451 96.8436 25.1659C96.8634 23.8951 96.8883 22.3414 96.918 20.5047C96.9577 18.6681 96.9925 16.5336 97.0223 14.1013L100.105 13.9821Z" fill="#4D1D9C"/>
<path d="M115.622 20.2069C115.612 19.7204 115.568 19.2985 115.488 18.9411C115.419 18.5837 115.324 18.2759 115.205 18.0178C115.096 17.7597 114.967 17.5462 114.818 17.3775C114.679 17.2087 114.535 17.0697 114.386 16.9605C114.039 16.7123 113.646 16.5932 113.21 16.6031C112.932 16.6428 112.634 16.7619 112.316 16.9605C112.008 17.1491 111.691 17.3973 111.363 17.7051C111.035 18.0029 110.703 18.3454 110.365 18.7326C110.038 19.1099 109.72 19.502 109.412 19.9091C109.104 20.3062 108.812 20.7033 108.534 21.1004C108.256 21.4975 108.007 21.8599 107.789 22.1875C107.799 22.9321 107.814 23.6668 107.834 24.3915C107.854 25.1063 107.868 25.7764 107.878 26.4019C107.898 27.0174 107.918 27.5783 107.938 28.0847C107.968 28.5811 107.998 28.9831 108.027 29.2909L104.826 29.693C104.766 27.9854 104.711 26.4416 104.662 25.0616C104.612 23.6717 104.567 22.4307 104.528 21.3387C104.488 20.2466 104.453 19.2836 104.423 18.4497C104.404 17.6157 104.384 16.896 104.364 16.2904C104.324 14.8707 104.294 13.8183 104.275 13.1333L107.67 13.0737C107.68 13.6793 107.685 14.2998 107.685 14.9352C107.695 15.5607 107.705 16.1365 107.715 16.6627C107.725 17.2782 107.729 17.8788 107.729 18.4646C108.017 18.0079 108.365 17.5065 108.772 16.9605C109.189 16.4145 109.655 15.8982 110.172 15.4117C110.698 14.9253 111.269 14.5033 111.884 14.1459C112.51 13.7786 113.175 13.5503 113.88 13.4609C114.674 13.4212 115.399 13.59 116.054 13.9672C116.332 14.1261 116.605 14.3395 116.873 14.6076C117.151 14.8657 117.404 15.2033 117.633 15.6202C117.871 16.0273 118.069 16.5187 118.228 17.0945C118.387 17.6604 118.496 18.3305 118.556 19.1049L115.622 20.2069Z" fill="#4D1D9C"/>
<path d="M126.91 29.3207C126.205 29.3107 125.58 29.1916 125.034 28.9633C124.498 28.7349 124.021 28.4421 123.604 28.0847C123.197 27.7173 122.845 27.3004 122.547 26.8337C122.259 26.3671 122.016 25.8956 121.817 25.419C121.341 24.2873 121.043 23.0066 120.924 21.5769L121.326 2.69415H124.438C124.388 4.46131 124.339 6.08452 124.289 7.56377C124.249 9.03309 124.215 10.3734 124.185 11.5846C124.155 12.7858 124.125 13.863 124.096 14.8161C124.076 15.7691 124.056 16.6081 124.036 17.3328C123.996 19.0404 123.966 20.3856 123.947 21.3685C123.966 22.2918 124.101 23.1158 124.349 23.8405C124.448 24.1483 124.577 24.4511 124.736 24.7489C124.905 25.0467 125.103 25.3148 125.332 25.5531C125.57 25.7913 125.848 25.9849 126.166 26.1338C126.493 26.2728 126.87 26.3473 127.297 26.3572L126.91 29.3207Z" fill="#4D1D9C"/>
<path d="M133.626 8.74025C133.626 9.02816 133.567 9.30117 133.448 9.5593C133.338 9.81742 133.185 10.0408 132.986 10.2294C132.797 10.418 132.574 10.5669 132.316 10.6762C132.058 10.7854 131.78 10.84 131.482 10.84C131.194 10.84 130.921 10.7854 130.663 10.6762C130.415 10.5669 130.191 10.418 129.993 10.2294C129.804 10.0408 129.655 9.81742 129.546 9.5593C129.437 9.30117 129.382 9.02816 129.382 8.74025C129.382 8.44241 129.437 8.16443 129.546 7.90631C129.655 7.64819 129.804 7.42481 129.993 7.23618C130.191 7.03762 130.415 6.88374 130.663 6.77453C130.921 6.6554 131.194 6.59583 131.482 6.59583C131.78 6.59583 132.058 6.6554 132.316 6.77453C132.574 6.88374 132.797 7.03762 132.986 7.23618C133.185 7.42481 133.338 7.64819 133.448 7.90631C133.567 8.16443 133.626 8.44241 133.626 8.74025ZM132.926 13.9821C132.897 15.4018 132.867 16.7073 132.837 17.8987C132.817 19.0801 132.797 20.1573 132.777 21.1302C132.758 22.1031 132.738 22.9768 132.718 23.7511C132.708 24.5156 132.698 25.1857 132.688 25.7615C132.658 27.1316 132.643 28.2088 132.643 28.9931H129.591C129.61 27.9208 129.635 26.6451 129.665 25.1659C129.685 23.8951 129.71 22.3414 129.74 20.5047C129.779 18.6681 129.814 16.5336 129.844 14.1013L132.926 13.9821Z" fill="#4D1D9C"/>
<path d="M137.647 29.693C137.588 27.9854 137.533 26.4416 137.483 25.0616C137.434 23.6717 137.389 22.4307 137.349 21.3387C137.31 20.2466 137.275 19.2836 137.245 18.4497C137.225 17.6157 137.205 16.896 137.185 16.2904C137.146 14.8707 137.116 13.8183 137.096 13.1333L140.491 13.0737L140.551 17.3626C140.879 16.7967 141.251 16.2655 141.668 15.7691C142.085 15.2628 142.537 14.8161 143.023 14.4289C143.509 14.0417 144.026 13.729 144.572 13.4907C145.128 13.2524 145.709 13.1134 146.314 13.0737C147.069 13.0241 147.724 13.0886 148.28 13.2673C148.846 13.446 149.327 13.6942 149.724 14.0119C150.121 14.3296 150.449 14.7069 150.707 15.1437C150.965 15.5706 151.169 16.0173 151.318 16.484C151.467 16.9406 151.571 17.3973 151.63 17.854C151.7 18.3107 151.745 18.7276 151.765 19.1049C151.824 20.8125 151.839 22.53 151.809 24.2575C151.779 25.9849 151.745 27.7769 151.705 29.6334L148.652 29.5292C148.732 27.9308 148.801 26.3324 148.861 24.734C148.93 23.1356 148.925 21.5223 148.846 19.8942C148.846 19.7155 148.831 19.4871 148.801 19.2092C148.781 18.9212 148.727 18.6184 148.637 18.3008C148.558 17.9831 148.444 17.6703 148.295 17.3626C148.146 17.0449 147.952 16.7719 147.714 16.5435C147.476 16.3053 147.183 16.1265 146.835 16.0074C146.498 15.8883 146.101 15.8635 145.644 15.933C144.86 16.0521 144.06 16.6279 143.246 17.6604C142.442 18.683 141.574 20.1821 140.64 22.1577C140.68 23.7561 140.71 25.0318 140.73 25.9849C140.759 26.9281 140.784 27.6429 140.804 28.1293C140.824 28.7052 140.839 29.0923 140.849 29.2909L137.647 29.693Z" fill="#4D1D9C"/>
<path d="M163.216 27.2209C163.742 27.2209 164.264 27.1415 164.78 26.9827C165.296 26.8139 165.773 26.5756 166.21 26.2679C166.646 25.9502 167.024 25.558 167.341 25.0914C167.669 24.6248 167.907 24.0837 168.056 23.4682L170.93 24.049C170.652 24.9524 170.26 25.7715 169.754 26.5061C169.247 27.2408 168.657 27.8712 167.982 28.3974C167.307 28.9236 166.562 29.3306 165.748 29.6185C164.944 29.9064 164.1 30.0504 163.216 30.0504C161.906 30.0504 160.744 29.8518 159.732 29.4547C158.719 29.0576 157.865 28.4967 157.17 27.7719C156.475 27.0472 155.944 26.1735 155.577 25.151C155.219 24.1284 155.041 22.9867 155.041 21.7259C155.041 20.4849 155.249 19.3283 155.666 18.2561C156.093 17.1739 156.674 16.2358 157.408 15.4415C158.143 14.6473 159.007 14.0218 160 13.5652C160.992 13.1085 162.065 12.8801 163.216 12.8801C164.249 12.8801 165.222 13.0837 166.135 13.4907C167.048 13.8878 167.858 14.4438 168.562 15.1586C169.267 15.8635 169.848 16.6974 170.305 17.6604C170.761 18.6234 171.049 19.6658 171.169 20.7877L158.272 22.7087C158.342 23.4136 158.515 24.049 158.793 24.6149C159.071 25.1708 159.424 25.6424 159.851 26.0296C160.288 26.4168 160.789 26.7146 161.355 26.9231C161.931 27.1217 162.551 27.2209 163.216 27.2209ZM167.326 18.8666L167.237 18.5837C166.86 17.6008 166.339 16.8314 165.673 16.2755C165.018 15.7195 164.199 15.4415 163.216 15.4415C162.799 15.4415 162.343 15.516 161.846 15.6649C161.35 15.8039 160.868 16.0471 160.402 16.3946C159.935 16.7421 159.513 17.2087 159.136 17.7944C158.769 18.3702 158.51 19.09 158.362 19.9537L167.326 18.8666Z" fill="#4D1D9C"/>
<path d="M187.847 25.3297C187.847 26.2728 187.654 27.0671 187.267 27.7124C186.889 28.3477 186.378 28.864 185.733 29.2611C185.097 29.6682 184.363 29.966 183.529 30.1546C182.705 30.3532 181.846 30.4723 180.952 30.512C180.039 30.5021 179.116 30.4078 178.183 30.2291C177.785 30.1596 177.363 30.0603 176.917 29.9312C176.48 29.8121 176.033 29.6632 175.576 29.4845C175.12 29.3058 174.663 29.0923 174.206 28.8441C173.75 28.5959 173.313 28.308 172.896 27.9804L174.34 25.7169C174.886 26.0048 175.442 26.2828 176.008 26.5508C176.584 26.8189 177.17 27.0571 177.766 27.2656C178.361 27.4642 178.972 27.623 179.597 27.7421C180.223 27.8613 180.868 27.9208 181.533 27.9208C182.079 27.9208 182.541 27.8712 182.918 27.7719C183.295 27.6627 183.603 27.5337 183.841 27.3847C184.09 27.2259 184.278 27.0522 184.407 26.8635C184.546 26.665 184.646 26.4763 184.705 26.2976C184.755 26.1388 184.775 25.9651 184.765 25.7764C184.755 25.5779 184.7 25.3793 184.601 25.1808C184.512 24.9822 184.368 24.7886 184.169 24.6C183.98 24.4014 183.727 24.2277 183.41 24.0788C183.092 23.9199 182.705 23.7909 182.248 23.6916C181.791 23.5923 181.25 23.5278 180.625 23.498C179.731 23.4583 178.868 23.3689 178.034 23.2299C177.21 23.081 176.47 22.8527 175.815 22.5449C175.169 22.2371 174.633 21.8351 174.206 21.3387C173.789 20.8324 173.536 20.2019 173.447 19.4474C173.377 18.7326 173.422 18.0823 173.581 17.4966C173.75 16.9009 173.998 16.3698 174.326 15.9032C174.663 15.4366 175.075 15.0295 175.562 14.682C176.048 14.3246 176.579 14.0318 177.155 13.8034C177.731 13.5652 178.336 13.3914 178.972 13.2822C179.617 13.1631 180.267 13.1035 180.923 13.1035C181.31 13.1035 181.767 13.1234 182.293 13.1631C182.819 13.2028 183.37 13.2822 183.946 13.4014C184.521 13.5205 185.102 13.6942 185.688 13.9226C186.274 14.141 186.82 14.4338 187.326 14.8012L186.299 17.5264C185.643 17.1789 185.018 16.9109 184.422 16.7222C183.836 16.5237 183.315 16.3698 182.859 16.2606C182.322 16.1414 181.821 16.062 181.354 16.0223C179.796 15.933 178.58 16.0968 177.706 16.5137C176.842 16.9307 176.41 17.5611 176.41 18.405C176.41 19.0007 176.574 19.4375 176.902 19.7155C177.229 19.9835 177.676 20.1771 178.242 20.2963C178.808 20.4154 179.468 20.4948 180.223 20.5345C180.977 20.5742 181.781 20.6586 182.635 20.7877C183.608 20.9366 184.427 21.16 185.092 21.4578C185.758 21.7556 186.294 22.1031 186.701 22.5002C187.108 22.8974 187.401 23.3391 187.579 23.8256C187.758 24.3021 187.847 24.8035 187.847 25.3297Z" fill="#4D1D9C"/>
</g>
</svg>
