<svg width="50" height="50" viewBox="0 0 50 50" fill="none" xmlns="http://www.w3.org/2000/svg">
<path d="M48.7 32.3C48 32.3 47.5 31.8 47.5 31.1C47.5 15.4 34.1 2.5 17.7 2.5C17 2.5 16.5 2 16.5 1.3C16.5 0.599998 17 0.0999985 17.7 0.0999985C22.1 0.0999985 26.3 0.899999 30.3 2.5C34.1 4.1 37.6 6.3 40.6 9.1C43.6 11.9 45.9 15.2 47.5 18.9C49.2 22.7 50 26.7 50 30.9C49.9 31.8 49.3 32.3 48.7 32.3Z" fill="#4D1D9C"/>
<path d="M40.8999 29C40.1999 29 39.6999 28.5 39.6999 27.8C39.6999 18 31.2999 10 21.0999 10C20.3999 10 19.8999 9.5 19.8999 8.8C19.8999 8.1 20.3999 7.6 21.0999 7.6C23.8999 7.6 26.6999 8.1 29.2999 9.2C31.7999 10.2 34.0999 11.7 35.9999 13.5C37.8999 15.3 39.3999 17.5 40.4999 19.9C41.5999 22.4 42.0999 25 42.0999 27.7C42.0999 28.4 41.5999 29 40.8999 29Z" fill="#4D1D9C"/>
<path d="M33.5 27.2C32.8 27.2 32.2999 26.7 32.2999 26C32.2999 21.1 28.0999 17 22.9 17C22.2 17 21.7 16.5 21.7 15.8C21.7 15.2 22.2 14.6 22.9 14.6C26.0999 14.6 28.9999 15.8 31.2999 17.9C33.4999 20 34.7999 22.9 34.7999 25.9C34.6999 26.7 34.1 27.2 33.5 27.2Z" fill="#4D1D9C"/>
<path d="M35 50C34.5 50 28.7 49.9 22.4 45.6C22.2 45.5 22.1 45.4 21.9 45.3C19.8 44 8.9 37 3 25.3C2.8 24.9 0 19.7 0 14.6C0 14.5 0 12.4 0.9 10C2.1 6.7 4.3 4.4 7.2 3.2C7.3 3.2 7.4 3.1 7.6 3.1C8.1 3 8.6 2.9 9.1 2.9C10.4 3 11.3 3.1 11.8 3.3C11.9 3.3 11.9 3.3 12 3.4C12.5 3.6 13.8 4.2 14.5 6.4L17.3 14.3C17.7 15.3 17.9 17.4 16.4 18.7C16.4 18.7 16.4 18.7 16.3 18.8L13.7 21.4C13.5 21.6 13.4 21.8 13.3 22.1C13.3 22.2 13.2 22.4 13.3 22.5C13.4 22.7 13.5 22.8 13.5 23C14.1 24.4 17.7 31.6 27.4 36.8C27.5 36.9 28 37 28.6 36.4L30.6 34.4C30.7 34.3 30.7 34.3 30.7 34.2C31.6 33 33.3 32 35.5 32.8L43.9 35.7C44 35.7 44 35.7 44.1 35.8C44.5 35.9 46.4 36.6 46.8 39V39.2C46.8 39.3 46.8 39.4 46.8 39.4C46.9 40.2 47.1 41.8 46.7 42.9C46.6 43.1 46 44.8 44.3 46.5C42.9 47.9 40 49.9 35 50ZM2 14.6C2 19.3 4.8 24.3 4.8 24.4C7.2 29.2 10.7 33.7 15.4 37.9C19 41.2 22.2 43.1 23 43.7C23.2 43.8 23.4 43.9 23.6 44.1C29.3 48 34.8 48 35 48C38.4 47.9 41.1 46.9 43.1 44.9C44.6 43.4 45.1 42 45.1 42C45.3 41.4 45.2 40.3 45.1 39.5C45.1 39.4 45.1 39.3 45.1 39.2V39.1C44.9 37.9 44 37.6 43.8 37.5C43.7 37.5 43.7 37.5 43.6 37.4L35 34.6C33.6 34.1 32.8 34.8 32.5 35.3C32.4 35.4 32.3 35.6 32.2 35.7L30.2 37.7C28.6 39.2 27 38.5 26.8 38.3C16.3 32.8 12.5 25 11.9 23.5C11.9 23.4 11.8 23.4 11.8 23.3C11.5 22.8 11.4 22.1 11.5 21.5C11.6 20.9 12 20.4 12.4 19.9L15 17.3C15.1 17.2 15.1 17.2 15.2 17.1C16 16.4 15.5 14.9 15.5 14.9L12.7 6.9C12.2 5.5 11.6 5.2 11.5 5.2C11.4 5.2 11.3 5.2 11.3 5.1C11 5 10.3 4.9 9 4.8C8.7 4.8 8.4 4.8 8.1 4.9L8 5C5.5 6 3.8 7.9 2.8 10.6C2 12.7 2 14.6 2 14.6Z" fill="#4D1D9C"/>
</svg>
