<svg width="25" height="28" viewBox="0 0 25 28" fill="none" xmlns="http://www.w3.org/2000/svg">
<path d="M24.7071 8.74708C25.0976 8.35656 25.0976 7.7234 24.7071 7.33287L18.3431 0.96891C17.9526 0.578386 17.3195 0.578386 16.9289 0.96891C16.5384 1.35943 16.5384 1.9926 16.9289 2.38312L22.5858 8.03998L16.9289 13.6968C16.5384 14.0874 16.5384 14.7205 16.9289 15.111C17.3195 15.5016 17.9526 15.5016 18.3431 15.111L24.7071 8.74708ZM1 9.03998L24 9.03998V7.03998L1 7.03998L1 9.03998Z" fill="#4D1D9C"/>
<path d="M0.292892 19.2929C-0.0976315 19.6834 -0.0976315 20.3166 0.292892 20.7071L6.65685 27.071C7.04738 27.4616 7.68054 27.4616 8.07107 27.071C8.46159 26.6805 8.46159 26.0474 8.07107 25.6568L2.41421 20L8.07107 14.3431C8.46159 13.9526 8.46159 13.3194 8.07107 12.9289C7.68054 12.5384 7.04738 12.5384 6.65685 12.9289L0.292892 19.2929ZM24 19L1 19V21L24 21V19Z" fill="#4D1D9C"/>
</svg>
