<svg width="38" height="37" viewBox="0 0 38 37" fill="none" xmlns="http://www.w3.org/2000/svg">
<path d="M10.2426 8.44454C12.3956 10.8332 12.2426 14.5552 9.81258 16.7459C7.42358 18.8996 3.70157 18.7462 1.51057 16.3163C-0.642427 13.9276 -0.489419 10.2056 1.94058 8.01494C4.36658 5.90248 8.08858 6.05584 10.2426 8.44454Z" fill="#4D1D9C"/>
<path d="M22.9756 5.1772C25.1286 7.56589 24.9756 11.2879 22.5456 13.4787C20.1566 15.6323 16.4346 15.4789 14.2446 13.0491C12.0906 10.6604 12.2436 6.93834 14.6736 4.74759C17.0996 2.63515 20.8216 2.78851 22.9756 5.1772Z" fill="#AC8DDF"/>
<path d="M35.7086 1.90981C37.8616 4.2985 37.7086 8.02049 35.2786 10.2113C32.8906 12.3649 29.1686 12.2115 26.9776 9.78169C24.8236 7.39296 24.9776 3.67094 27.4066 1.48019C29.8326 -0.632242 33.5546 -0.478882 35.7086 1.90981Z" fill="#D7C0FC" fill-opacity="0.99"/>
<path d="M22.4136 22.1096C24.5666 24.4982 28.2847 24.7299 30.7147 22.5392C33.1037 20.3856 33.3346 16.6676 31.1446 14.2377C28.9906 11.849 25.2726 11.6174 22.8426 13.8081C20.4916 16.0029 20.2596 19.7209 22.4136 22.1096Z" fill="#F2EDFB"/>
<path d="M17.8484 34.4375C20.0024 36.8262 23.7204 37.0579 26.1504 34.8671C28.5384 32.7135 28.7704 28.9955 26.5794 26.5657C24.4264 24.177 20.7084 23.9453 18.2784 26.136C15.9264 28.3308 15.6954 32.0488 17.8484 34.4375Z" fill="#F9F8FD"/>
</svg>
