<?xml version="1.0" encoding="UTF-8" standalone="no" ?>
<!DOCTYPE svg PUBLIC "-//W3C//DTD SVG 1.1//EN" "http://www.w3.org/Graphics/SVG/1.1/DTD/svg11.dtd">
<svg xmlns="http://www.w3.org/2000/svg" xmlns:xlink="http://www.w3.org/1999/xlink" version="1.1" width="24.655984899432593" height="28.052244899432598" viewBox="234.6120075502837 225.5638775502837 24.655984899432593 28.052244899432598" xml:space="preserve">
<desc>Created with Fabric.js 4.6.0</desc>
<defs>
</defs>
<g transform="matrix(1 0 0 1 246.94 239.59)" id="vo6oZQlVLyeRKloJfn0ir"  >
<path style="stroke: none; stroke-width: 1; stroke-dasharray: none; stroke-linecap: butt; stroke-dashoffset: 0; stroke-linejoin: miter; stroke-miterlimit: 4; fill: rgb(77,29,156); fill-rule: nonzero; opacity: 1;" vector-effect="non-scaling-stroke"  transform=" translate(-11.83, -13.53)" d="M 0 9.85793 C 0 4.413539999999999 4.41354 0 9.85793 0 C 15.302299999999999 0 19.715899999999998 4.41354 19.715899999999998 9.85793 C 19.715899999999998 12.31382 18.817819999999998 14.55997 17.33215 16.28588 C 17.49662 16.40253 17.647589999999997 16.544069999999998 17.77938 16.70984 L 23.18078 23.50374 C 23.932479999999998 24.44934 23.77538 25.82524 22.82988 26.57704 C 21.88428 27.32874 20.50838 27.17164 19.75658 26.22614 L 14.35518 19.43214 C 14.20059 19.23772 14.084430000000001 19.025100000000002 14.00566 18.80345 C 12.74488 19.389020000000002 11.33957 19.7159 9.85793 19.7159 C 4.413539999999999 19.7159 0 15.302300000000002 0 9.857930000000001 z M 2.88799 9.65612 C 2.88799 13.48148 5.99263 16.58612 9.81799 16.58612 C 13.64335 16.58612 16.74799 13.481480000000001 16.74799 9.656120000000001 C 16.74799 5.8307600000000015 13.643350000000002 2.7261200000000017 9.817990000000002 2.7261200000000017 C 5.992630000000002 2.7261200000000017 2.887990000000002 5.8307600000000015 2.887990000000002 9.656120000000001 z" stroke-linecap="round" />
</g>
</svg>