<?xml version="1.0" encoding="utf-8"?>
<!-- Generator: Adobe Illustrator 25.2.1, SVG Export Plug-In . SVG Version: 6.00 Build 0)  -->
<svg version="1.1" id="Слой_1" xmlns="http://www.w3.org/2000/svg" xmlns:xlink="http://www.w3.org/1999/xlink" x="0px" y="0px"
	 viewBox="0 0 30 30" style="enable-background:new 0 0 30 30;" xml:space="preserve">
<style type="text/css">
	.st0{fill:#21243D;}
</style>
<path class="st0" d="M30,3.9c-1.1,0.5-2.3,0.8-3.5,1c1.3-0.8,2.2-2,2.7-3.4c-1.2,0.7-2.5,1.2-3.9,1.5C24.1,1.7,22.5,1,20.8,1
	c-3.4,0-6.1,2.8-6.1,6.1c0,0.5,0,1,0.1,1.4C9.7,8.3,5.2,5.8,2.1,2.1C1.6,3,1.3,4.1,1.3,5.2c0,2.1,1.1,4,2.7,5.1c-1,0-2-0.3-2.8-0.8
	c0,0,0,0,0,0.1c0,3,2.1,5.5,4.9,6c-0.5,0.1-1,0.2-1.6,0.2c-0.4,0-0.8,0-1.2-0.1C4.2,18.2,6.4,20,9.1,20c-2.1,1.6-4.7,2.6-7.6,2.6
	c-0.5,0-1,0-1.5-0.1c2.7,1.8,5.9,2.8,9.4,2.8c11.3,0,17.5-9.4,17.5-17.5c0-0.3,0-0.5,0-0.8C28.1,6.2,29.1,5.1,30,3.9z"/>
</svg>
