<?xml version="1.0" encoding="UTF-8"?>
<!-- Generator: Adobe Illustrator 24.3.0, SVG Export Plug-In . SVG Version: 6.00 Build 0)  -->
<svg version="1.1" id="Layer_1" xmlns="http://www.w3.org/2000/svg" xmlns:xlink="http://www.w3.org/1999/xlink" x="0px" y="0px" viewBox="0 0 50 50" style="enable-background:new 0 0 50 50;" xml:space="preserve">
<style type="text/css">
	.st0{fill:#2E9ED9;}
</style>
<g>
	<g>
		<g>
			<path class="st0" d="M48.7,32.3c-0.7,0-1.2-0.5-1.2-1.2c0-15.7-13.4-28.6-29.8-28.6c-0.7,0-1.2-0.5-1.2-1.2s0.5-1.2,1.2-1.2     c4.4,0,8.6,0.8,12.6,2.4c3.8,1.6,7.3,3.8,10.3,6.6c3,2.8,5.3,6.1,6.9,9.8c1.7,3.8,2.5,7.8,2.5,12C49.9,31.8,49.3,32.3,48.7,32.3z     "/>
		</g>
	</g>
	<g>
		<g>
			<path class="st0" d="M40.9,29c-0.7,0-1.2-0.5-1.2-1.2C39.7,18,31.3,10,21.1,10c-0.7,0-1.2-0.5-1.2-1.2s0.5-1.2,1.2-1.2     c2.8,0,5.6,0.5,8.2,1.6c2.5,1,4.8,2.5,6.7,4.3c1.9,1.8,3.4,4,4.5,6.4c1.1,2.5,1.6,5.1,1.6,7.8C42.1,28.4,41.6,29,40.9,29z"/>
		</g>
	</g>
	<g>
		<g>
			<path class="st0" d="M33.5,27.2c-0.7,0-1.2-0.5-1.2-1.2c0-4.9-4.2-9-9.4-9c-0.7,0-1.2-0.5-1.2-1.2c0-0.6,0.5-1.2,1.2-1.2     c3.2,0,6.1,1.2,8.4,3.3c2.2,2.1,3.5,5,3.5,8C34.7,26.7,34.1,27.2,33.5,27.2z"/>
		</g>
	</g>
	<g>
		<path class="st0" d="M35,50c-0.5,0-6.3-0.1-12.6-4.4c-0.2-0.1-0.3-0.2-0.5-0.3C19.8,44,8.9,37,3,25.3c-0.2-0.4-3-5.6-3-10.7    c0-0.1,0-2.2,0.9-4.6c1.2-3.3,3.4-5.6,6.3-6.8c0.1,0,0.2-0.1,0.4-0.1c0.5-0.1,1-0.2,1.5-0.2c1.3,0.1,2.2,0.2,2.7,0.4    c0.1,0,0.1,0,0.2,0.1c0.5,0.2,1.8,0.8,2.5,3l2.8,7.9c0.4,1,0.6,3.1-0.9,4.4c0,0,0,0-0.1,0.1l-2.6,2.6c-0.2,0.2-0.3,0.4-0.4,0.7    c0,0.1-0.1,0.3,0,0.4c0.1,0.2,0.2,0.3,0.2,0.5c0.6,1.4,4.2,8.6,13.9,13.8c0,0,0,0,0,0c0.1,0.1,0.6,0.2,1.2-0.4l2-2    c0.1-0.1,0.1-0.1,0.1-0.2c0.9-1.2,2.6-2.2,4.8-1.4l8.4,2.9c0.1,0,0.1,0,0.2,0.1c0.4,0.1,2.3,0.8,2.7,3.2l0,0.2c0,0.1,0,0.2,0,0.2    c0.1,0.8,0.3,2.4-0.1,3.5c-0.1,0.2-0.7,1.9-2.4,3.6C42.9,47.9,40,49.9,35,50C35,50,35,50,35,50z M2,14.6c0,4.7,2.8,9.7,2.8,9.8    c0,0,0,0,0,0c2.4,4.8,5.9,9.3,10.6,13.5c3.6,3.3,6.8,5.2,7.6,5.8c0.2,0.1,0.4,0.2,0.6,0.4C29.3,48,34.8,48,35,48    c3.4-0.1,6.1-1.1,8.1-3.1c1.5-1.5,2-2.9,2-2.9c0,0,0,0,0,0c0.2-0.6,0.1-1.7,0-2.5c0-0.1,0-0.2,0-0.3l0-0.1    c-0.2-1.2-1.1-1.5-1.3-1.6c-0.1,0-0.1,0-0.2-0.1L35,34.6c0,0,0,0,0,0c-1.4-0.5-2.2,0.2-2.5,0.7c-0.1,0.1-0.2,0.3-0.3,0.4l-2,2    c0,0,0,0,0,0c-1.6,1.5-3.2,0.8-3.4,0.6l0,0C16.3,32.8,12.5,25,11.9,23.5c0-0.1-0.1-0.1-0.1-0.2c-0.3-0.5-0.4-1.2-0.3-1.8    c0.1-0.6,0.5-1.1,0.9-1.6l2.6-2.6c0.1-0.1,0.1-0.1,0.2-0.2c0.8-0.7,0.3-2.2,0.3-2.2c0,0,0,0,0,0l-2.8-8c0,0,0,0,0,0    c-0.5-1.4-1.1-1.7-1.2-1.7c-0.1,0-0.2,0-0.2-0.1C11,5,10.3,4.9,9,4.8c-0.3,0-0.6,0-0.9,0.1C8.1,4.9,8,5,8,5c0,0,0,0,0,0    c-2.5,1-4.2,2.9-5.2,5.6C2,12.7,2,14.6,2,14.6z M27.6,36.5L27.6,36.5L27.6,36.5z"/>
	</g>
</g>
</svg>