<svg width="25" height="28" viewBox="0 0 25 28" fill="none" xmlns="http://www.w3.org/2000/svg">
<rect width="25" height="28" fill="white"/>
<path fill-rule="evenodd" clip-rule="evenodd" d="M9.85793 19.7159C15.3023 19.7159 19.7159 15.3023 19.7159 9.85793C19.7159 4.41354 15.3023 0 9.85793 0C4.41354 0 0 4.41354 0 9.85793C0 15.3023 4.41354 19.7159 9.85793 19.7159ZM9.85793 16.6028C13.583 16.6028 16.6028 13.583 16.6028 9.85793C16.6028 6.13283 13.583 3.11304 9.85793 3.11304C6.13283 3.11304 3.11304 6.13283 3.11304 9.85793C3.11304 13.583 6.13283 16.6028 9.85793 16.6028Z" fill="#4D1D9C"/>
<path d="M14.7121 16.3612C15.6577 15.6094 17.0336 15.7665 17.7854 16.7121L23.1868 23.506C23.9385 24.4516 23.7814 25.8275 22.8359 26.5793C21.8903 27.331 20.5144 27.1739 19.7626 26.2284L14.3612 19.4344C13.6094 18.4889 13.7665 17.1129 14.7121 16.3612Z" fill="#4D1D9C"/>
</svg>
